<mxfile host="app.diagrams.net" agent="Mozilla/5.0 (X11; Linux x86_64; rv:136.0) Gecko/20100101 Firefox/136.0" version="26.1.0">
  <diagram name="Page-1" id="vsZIMHn6usWkcGBhJJXc">
    <mxGraphModel dx="386" dy="233" grid="1" gridSize="10" guides="1" tooltips="1" connect="1" arrows="1" fold="1" page="1" pageScale="1" pageWidth="850" pageHeight="1100" math="0" shadow="0">
      <root>
        <mxCell id="0" />
        <mxCell id="1" parent="0" />
        <mxCell id="RBuWCE5nL4s-VutMwFqI-3" value="&lt;div&gt;cinema&lt;/div&gt;" style="whiteSpace=wrap;html=1;align=center;" vertex="1" parent="1">
          <mxGeometry x="400" y="450" width="100" height="40" as="geometry" />
        </mxCell>
        <mxCell id="RBuWCE5nL4s-VutMwFqI-4" value="sala" style="whiteSpace=wrap;html=1;align=center;rounded=1;arcSize=50;" vertex="1" parent="1">
          <mxGeometry x="560" y="450" width="100" height="40" as="geometry" />
        </mxCell>
        <mxCell id="RBuWCE5nL4s-VutMwFqI-8" value="" style="endArrow=none;html=1;rounded=0;exitX=1;exitY=0.5;exitDx=0;exitDy=0;entryX=0;entryY=0.5;entryDx=0;entryDy=0;" edge="1" parent="1" source="RBuWCE5nL4s-VutMwFqI-3" target="RBuWCE5nL4s-VutMwFqI-4">
          <mxGeometry relative="1" as="geometry">
            <mxPoint x="440" y="480" as="sourcePoint" />
            <mxPoint x="600" y="480" as="targetPoint" />
          </mxGeometry>
        </mxCell>
        <mxCell id="RBuWCE5nL4s-VutMwFqI-10" value="(1, N)" style="edgeLabel;html=1;align=center;verticalAlign=middle;resizable=0;points=[];" vertex="1" connectable="0" parent="RBuWCE5nL4s-VutMwFqI-8">
          <mxGeometry x="0.0508" y="2" relative="1" as="geometry">
            <mxPoint as="offset" />
          </mxGeometry>
        </mxCell>
        <mxCell id="RBuWCE5nL4s-VutMwFqI-19" value="" style="endArrow=none;html=1;rounded=0;entryX=0.3;entryY=0;entryDx=0;entryDy=0;entryPerimeter=0;" edge="1" parent="1" target="RBuWCE5nL4s-VutMwFqI-3">
          <mxGeometry width="50" height="50" relative="1" as="geometry">
            <mxPoint x="430" y="330" as="sourcePoint" />
            <mxPoint x="530" y="420" as="targetPoint" />
          </mxGeometry>
        </mxCell>
        <mxCell id="RBuWCE5nL4s-VutMwFqI-21" value="" style="endArrow=oval;html=1;rounded=0;endFill=0;" edge="1" parent="1">
          <mxGeometry width="50" height="50" relative="1" as="geometry">
            <mxPoint x="430" y="400" as="sourcePoint" />
            <mxPoint x="470" y="400" as="targetPoint" />
          </mxGeometry>
        </mxCell>
        <mxCell id="RBuWCE5nL4s-VutMwFqI-22" value="" style="endArrow=oval;html=1;rounded=0;endFill=0;" edge="1" parent="1">
          <mxGeometry width="50" height="50" relative="1" as="geometry">
            <mxPoint x="430" y="420" as="sourcePoint" />
            <mxPoint x="470" y="420" as="targetPoint" />
          </mxGeometry>
        </mxCell>
        <mxCell id="RBuWCE5nL4s-VutMwFqI-23" value="&lt;div&gt;Nome&lt;/div&gt;" style="text;html=1;align=center;verticalAlign=middle;whiteSpace=wrap;rounded=0;" vertex="1" parent="1">
          <mxGeometry x="470" y="320" width="50" height="20" as="geometry" />
        </mxCell>
        <mxCell id="RBuWCE5nL4s-VutMwFqI-25" value="&lt;div&gt;Indirizzo&lt;/div&gt;" style="text;html=1;align=center;verticalAlign=middle;whiteSpace=wrap;rounded=0;" vertex="1" parent="1">
          <mxGeometry x="475" y="390" width="45" height="20" as="geometry" />
        </mxCell>
        <mxCell id="RBuWCE5nL4s-VutMwFqI-27" value="Telefono" style="text;html=1;align=center;verticalAlign=middle;whiteSpace=wrap;rounded=0;" vertex="1" parent="1">
          <mxGeometry x="470" y="410" width="62.5" height="20" as="geometry" />
        </mxCell>
        <mxCell id="RBuWCE5nL4s-VutMwFqI-28" value="" style="endArrow=oval;html=1;rounded=0;endFill=1;entryX=0;entryY=0.5;entryDx=0;entryDy=0;" edge="1" parent="1" target="RBuWCE5nL4s-VutMwFqI-23">
          <mxGeometry width="50" height="50" relative="1" as="geometry">
            <mxPoint x="430" y="330" as="sourcePoint" />
            <mxPoint x="550" y="360" as="targetPoint" />
          </mxGeometry>
        </mxCell>
        <mxCell id="RBuWCE5nL4s-VutMwFqI-29" value="" style="endArrow=oval;html=1;rounded=0;endFill=0;" edge="1" parent="1">
          <mxGeometry width="50" height="50" relative="1" as="geometry">
            <mxPoint x="430" y="380" as="sourcePoint" />
            <mxPoint x="470" y="380" as="targetPoint" />
          </mxGeometry>
        </mxCell>
        <mxCell id="RBuWCE5nL4s-VutMwFqI-31" value="Prezzo" style="text;html=1;align=center;verticalAlign=middle;whiteSpace=wrap;rounded=0;" vertex="1" parent="1">
          <mxGeometry x="475" y="370" width="45" height="20" as="geometry" />
        </mxCell>
        <mxCell id="RBuWCE5nL4s-VutMwFqI-33" value="" style="endArrow=none;html=1;rounded=0;exitX=0.787;exitY=0.022;exitDx=0;exitDy=0;exitPerimeter=0;" edge="1" parent="1">
          <mxGeometry width="50" height="50" relative="1" as="geometry">
            <mxPoint x="638.7" y="450" as="sourcePoint" />
            <mxPoint x="640" y="329.12" as="targetPoint" />
          </mxGeometry>
        </mxCell>
        <mxCell id="RBuWCE5nL4s-VutMwFqI-34" value="" style="endArrow=oval;html=1;rounded=0;endFill=1;" edge="1" parent="1">
          <mxGeometry width="50" height="50" relative="1" as="geometry">
            <mxPoint x="640" y="330" as="sourcePoint" />
            <mxPoint x="620" y="330" as="targetPoint" />
          </mxGeometry>
        </mxCell>
        <mxCell id="RBuWCE5nL4s-VutMwFqI-36" value="Nome" style="text;html=1;align=center;verticalAlign=middle;whiteSpace=wrap;rounded=0;" vertex="1" parent="1">
          <mxGeometry x="570" y="322.5" width="40" height="15" as="geometry" />
        </mxCell>
        <mxCell id="RBuWCE5nL4s-VutMwFqI-38" value="Posti" style="text;html=1;align=center;verticalAlign=middle;whiteSpace=wrap;rounded=0;" vertex="1" parent="1">
          <mxGeometry x="570" y="350" width="40" height="10" as="geometry" />
        </mxCell>
        <mxCell id="RBuWCE5nL4s-VutMwFqI-39" value="Dim. Schermo" style="text;html=1;align=center;verticalAlign=middle;whiteSpace=wrap;rounded=0;" vertex="1" parent="1">
          <mxGeometry x="565" y="380" width="50" height="10" as="geometry" />
        </mxCell>
        <mxCell id="RBuWCE5nL4s-VutMwFqI-40" value="Accessiblita&#39;" style="text;html=1;align=center;verticalAlign=middle;whiteSpace=wrap;rounded=0;" vertex="1" parent="1">
          <mxGeometry x="690" y="350" width="70" height="20" as="geometry" />
        </mxCell>
        <mxCell id="RBuWCE5nL4s-VutMwFqI-41" value="Audio Dolby" style="text;html=1;align=center;verticalAlign=middle;whiteSpace=wrap;rounded=0;" vertex="1" parent="1">
          <mxGeometry x="680" y="395" width="50" height="10" as="geometry" />
        </mxCell>
        <mxCell id="RBuWCE5nL4s-VutMwFqI-44" value="" style="endArrow=oval;html=1;rounded=0;entryX=1;entryY=0.5;entryDx=0;entryDy=0;endFill=0;" edge="1" parent="1" target="RBuWCE5nL4s-VutMwFqI-38">
          <mxGeometry width="50" height="50" relative="1" as="geometry">
            <mxPoint x="640" y="355" as="sourcePoint" />
            <mxPoint x="620" y="380" as="targetPoint" />
          </mxGeometry>
        </mxCell>
        <mxCell id="RBuWCE5nL4s-VutMwFqI-45" value="" style="endArrow=oval;html=1;rounded=0;entryX=0.931;entryY=-0.035;entryDx=0;entryDy=0;entryPerimeter=0;endFill=0;" edge="1" parent="1" target="RBuWCE5nL4s-VutMwFqI-39">
          <mxGeometry width="50" height="50" relative="1" as="geometry">
            <mxPoint x="640" y="380" as="sourcePoint" />
            <mxPoint x="620" y="380" as="targetPoint" />
          </mxGeometry>
        </mxCell>
        <mxCell id="RBuWCE5nL4s-VutMwFqI-53" value="" style="endArrow=oval;html=1;rounded=0;entryX=0;entryY=0.5;entryDx=0;entryDy=0;endFill=0;" edge="1" parent="1" target="RBuWCE5nL4s-VutMwFqI-41">
          <mxGeometry width="50" height="50" relative="1" as="geometry">
            <mxPoint x="640" y="400" as="sourcePoint" />
            <mxPoint x="620" y="380" as="targetPoint" />
          </mxGeometry>
        </mxCell>
        <mxCell id="RBuWCE5nL4s-VutMwFqI-56" value="" style="endArrow=oval;html=1;rounded=0;entryX=0;entryY=0.5;entryDx=0;entryDy=0;endFill=0;" edge="1" parent="1">
          <mxGeometry width="50" height="50" relative="1" as="geometry">
            <mxPoint x="640" y="360" as="sourcePoint" />
            <mxPoint x="680" y="360" as="targetPoint" />
          </mxGeometry>
        </mxCell>
      </root>
    </mxGraphModel>
  </diagram>
</mxfile>
